<svg xmlns="http://www.w3.org/2000/svg" fill="none" viewBox="0 0 1200 720"><rect width="1200" height="720" fill="#fafafa"/><rect width="400" height="560" x="400" y="80" fill="#fff" stroke="#e4e4e7" rx="12"/><rect width="48" height="48" x="576" y="120" fill="#18181b" rx="12"/><text x="600" y="190" fill="#18181b" font-family="Inter,sans-serif" font-size="22" font-weight="700" text-anchor="middle">Sign in</text><text x="600" y="214" fill="#71717a" font-family="Inter,sans-serif" font-size="13" text-anchor="middle">Welcome back — enter your credentials</text><text x="432" y="258" fill="#18181b" font-family="Inter,sans-serif" font-size="13" font-weight="500">Email</text><rect width="336" height="44" x="432" y="268" fill="#fff" stroke="#e4e4e7" rx="8"/><text x="448" y="296" fill="#a1a1aa" font-family="Inter,sans-serif" font-size="14">you@company.com</text><text x="432" y="340" fill="#18181b" font-family="Inter,sans-serif" font-size="13" font-weight="500">Password</text><rect width="336" height="44" x="432" y="350" fill="#fff" stroke="#e4e4e7" rx="8"/><text x="448" y="378" fill="#a1a1aa" font-family="Inter,sans-serif" font-size="14">&quot;&quot;&quot;&quot;&quot;&quot;&quot;&quot;</text><rect width="336" height="44" x="432" y="418" fill="#18181b" rx="8"/><text x="600" y="446" fill="#fff" font-family="Inter,sans-serif" font-size="14" font-weight="600" text-anchor="middle">Continue</text><line x1="432" x2="768" y1="488" y2="488" stroke="#e4e4e7"/><text x="600" y="494" fill="#a1a1aa" font-family="Inter,sans-serif" font-size="11" text-anchor="middle">or continue with</text><rect width="160" height="40" x="432" y="512" fill="#fff" stroke="#e4e4e7" rx="8"/><text x="512" y="537" fill="#18181b" font-family="Inter,sans-serif" font-size="13" font-weight="500" text-anchor="middle">Google</text><rect width="160" height="40" x="608" y="512" fill="#fff" stroke="#e4e4e7" rx="8"/><text x="688" y="537" fill="#18181b" font-family="Inter,sans-serif" font-size="13" font-weight="500" text-anchor="middle">GitHub</text><text x="520" y="600" fill="#71717a" font-family="Inter,sans-serif" font-size="12">Forgot password?</text><text x="680" y="600" fill="#18181b" font-family="Inter,sans-serif" font-size="12" font-weight="500">Sign up</text></svg>