<svg xmlns="http://www.w3.org/2000/svg" viewBox="0 0 1440 900" fill="none">
  <rect width="1440" height="900" fill="#fafafa"/>
  <!-- Top nav -->
  <rect width="1440" height="64" fill="#fff" stroke="#e4e4e7" stroke-width="1"/>
  <rect x="24" y="20" width="24" height="24" rx="6" fill="#18181b"/>
  <text x="60" y="37" font-family="Inter,sans-serif" font-size="16" font-weight="600" fill="#18181b">qwen-ui-lab</text>
  <text x="60" y="52" font-family="Inter,sans-serif" font-size="10" fill="#71717a">AI-assisted UI scaffolding</text>
  <circle cx="1390" cy="32" r="16" fill="#f4f4f5" stroke="#e4e4e7"/>
  <path d="M1384 32a6 6 0 1 1 6-6 5 5 0 0 0 6 6z" fill="none" stroke="#18181b" stroke-width="1.5"/>

  <!-- Page title -->
  <text x="80" y="110" font-family="Inter,sans-serif" font-size="28" font-weight="700" fill="#18181b">Dashboard</text>
  <text x="80" y="134" font-family="Inter,sans-serif" font-size="14" fill="#71717a">Welcome back! Here's what's happening with your platform.</text>

  <!-- Stat cards -->
  <g>
    <!-- Card 1 -->
    <rect x="80" y="164" width="300" height="120" rx="8" fill="#fff" stroke="#e4e4e7"/>
    <text x="104" y="194" font-family="Inter,sans-serif" font-size="13" fill="#71717a">Total Revenue</text>
    <text x="104" y="228" font-family="Inter,sans-serif" font-size="26" font-weight="700" fill="#18181b">$45,231</text>
    <text x="104" y="256" font-family="Inter,sans-serif" font-size="12" fill="#059669">↑ +20.1%</text>
    <text x="166" y="256" font-family="Inter,sans-serif" font-size="12" fill="#71717a">vs last month</text>

    <!-- Card 2 -->
    <rect x="400" y="164" width="300" height="120" rx="8" fill="#fff" stroke="#e4e4e7"/>
    <text x="424" y="194" font-family="Inter,sans-serif" font-size="13" fill="#71717a">Subscriptions</text>
    <text x="424" y="228" font-family="Inter,sans-serif" font-size="26" font-weight="700" fill="#18181b">+2,350</text>
    <text x="424" y="256" font-family="Inter,sans-serif" font-size="12" fill="#059669">↑ +180.1%</text>
    <text x="500" y="256" font-family="Inter,sans-serif" font-size="12" fill="#71717a">vs last month</text>

    <!-- Card 3 -->
    <rect x="720" y="164" width="300" height="120" rx="8" fill="#fff" stroke="#e4e4e7"/>
    <text x="744" y="194" font-family="Inter,sans-serif" font-size="13" fill="#71717a">Sales</text>
    <text x="744" y="228" font-family="Inter,sans-serif" font-size="26" font-weight="700" fill="#18181b">+12,234</text>
    <text x="744" y="256" font-family="Inter,sans-serif" font-size="12" fill="#059669">↑ +19%</text>
    <text x="798" y="256" font-family="Inter,sans-serif" font-size="12" fill="#71717a">vs last month</text>

    <!-- Card 4 -->
    <rect x="1040" y="164" width="300" height="120" rx="8" fill="#fff" stroke="#e4e4e7"/>
    <text x="1064" y="194" font-family="Inter,sans-serif" font-size="13" fill="#71717a">Active Now</text>
    <text x="1064" y="228" font-family="Inter,sans-serif" font-size="26" font-weight="700" fill="#18181b">+573</text>
    <text x="1064" y="256" font-family="Inter,sans-serif" font-size="12" fill="#dc2626">↓ -2.5%</text>
    <text x="1122" y="256" font-family="Inter,sans-serif" font-size="12" fill="#71717a">vs last month</text>
  </g>

  <!-- Revenue + Chart row -->
  <g>
    <!-- Revenue card -->
    <rect x="80" y="308" width="720" height="280" rx="8" fill="#fff" stroke="#e4e4e7"/>
    <text x="104" y="342" font-family="Inter,sans-serif" font-size="17" font-weight="600" fill="#18181b">Revenue Overview</text>
    <text x="104" y="362" font-family="Inter,sans-serif" font-size="13" fill="#71717a">Monthly revenue trend</text>
    <!-- Bar chart -->
    <rect x="140" y="390" width="60" height="24" rx="4" fill="#f4f4f5"/>
    <rect x="140" y="390" width="22" height="24" rx="4" fill="#18181b"/>
    <text x="104" y="407" font-family="Inter,sans-serif" font-size="11" fill="#71717a">Jan</text>
    <text x="720" y="407" font-family="Inter,sans-serif" font-size="12" font-weight="600" fill="#18181b" text-anchor="end">$4,000</text>

    <rect x="140" y="422" width="60" height="24" rx="4" fill="#f4f4f5"/>
    <rect x="140" y="422" width="16" height="24" rx="4" fill="#18181b"/>
    <text x="104" y="439" font-family="Inter,sans-serif" font-size="11" fill="#71717a">Feb</text>
    <text x="720" y="439" font-family="Inter,sans-serif" font-size="12" font-weight="600" fill="#18181b" text-anchor="end">$3,000</text>

    <rect x="140" y="454" width="60" height="24" rx="4" fill="#f4f4f5"/>
    <rect x="140" y="454" width="30" height="24" rx="4" fill="#18181b"/>
    <text x="104" y="471" font-family="Inter,sans-serif" font-size="11" fill="#71717a">Mar</text>
    <text x="720" y="471" font-family="Inter,sans-serif" font-size="12" font-weight="600" fill="#18181b" text-anchor="end">$5,000</text>

    <rect x="140" y="486" width="60" height="24" rx="4" fill="#f4f4f5"/>
    <rect x="140" y="486" width="27" height="24" rx="4" fill="#18181b"/>
    <text x="104" y="503" font-family="Inter,sans-serif" font-size="11" fill="#71717a">Apr</text>
    <text x="720" y="503" font-family="Inter,sans-serif" font-size="12" font-weight="600" fill="#18181b" text-anchor="end">$4,500</text>

    <rect x="140" y="518" width="60" height="24" rx="4" fill="#f4f4f5"/>
    <rect x="140" y="518" width="40" height="24" rx="4" fill="#18181b"/>
    <text x="104" y="535" font-family="Inter,sans-serif" font-size="11" fill="#71717a">May</text>
    <text x="720" y="535" font-family="Inter,sans-serif" font-size="12" font-weight="600" fill="#18181b" text-anchor="end">$6,000</text>

    <rect x="140" y="550" width="60" height="24" rx="4" fill="#f4f4f5"/>
    <rect x="140" y="550" width="36" height="24" rx="4" fill="#18181b"/>
    <text x="104" y="567" font-family="Inter,sans-serif" font-size="11" fill="#71717a">Jun</text>
    <text x="720" y="567" font-family="Inter,sans-serif" font-size="12" font-weight="600" fill="#18181b" text-anchor="end">$5,500</text>

    <!-- Chart placeholder -->
    <rect x="820" y="308" width="520" height="280" rx="8" fill="#fff" stroke="#e4e4e7"/>
    <text x="844" y="342" font-family="Inter,sans-serif" font-size="17" font-weight="600" fill="#18181b">Performance Chart</text>
    <text x="844" y="362" font-family="Inter,sans-serif" font-size="13" fill="#71717a">Visual analytics placeholder</text>
    <rect x="860" y="380" width="440" height="180" rx="6" fill="#f4f4f5" stroke="#e4e4e7" stroke-dasharray="6 4"/>
    <text x="1080" y="478" font-family="Inter,sans-serif" font-size="13" fill="#a1a1aa" text-anchor="middle">Chart integration pending</text>
  </g>

  <!-- Activity + Quick Actions row -->
  <g>
    <!-- Activity list -->
    <rect x="80" y="612" width="640" height="260" rx="8" fill="#fff" stroke="#e4e4e7"/>
    <text x="104" y="646" font-family="Inter,sans-serif" font-size="17" font-weight="600" fill="#18181b">Recent Activity</text>
    <text x="104" y="666" font-family="Inter,sans-serif" font-size="13" fill="#71717a">Latest user interactions</text>

    <circle cx="120" cy="700" r="16" fill="#f4f4f5"/>
    <text x="116" y="705" font-family="Inter,sans-serif" font-size="11" font-weight="600" fill="#18181b" text-anchor="middle">OM</text>
    <text x="148" y="696" font-family="Inter,sans-serif" font-size="13" font-weight="500" fill="#18181b">Olivia Martin</text>
    <text x="148" y="712" font-family="Inter,sans-serif" font-size="12" fill="#71717a">Upgraded to Pro plan</text>
    <text x="660" y="704" font-family="Inter,sans-serif" font-size="11" fill="#a1a1aa" text-anchor="end">2 min ago</text>

    <circle cx="120" cy="744" r="16" fill="#f4f4f5"/>
    <text x="116" y="749" font-family="Inter,sans-serif" font-size="11" font-weight="600" fill="#18181b" text-anchor="middle">JL</text>
    <text x="148" y="740" font-family="Inter,sans-serif" font-size="13" font-weight="500" fill="#18181b">Jackson Lee</text>
    <text x="148" y="756" font-family="Inter,sans-serif" font-size="12" fill="#71717a">Submitted a support ticket</text>
    <text x="660" y="748" font-family="Inter,sans-serif" font-size="11" fill="#a1a1aa" text-anchor="end">15 min ago</text>

    <circle cx="120" cy="788" r="16" fill="#f4f4f5"/>
    <text x="116" y="793" font-family="Inter,sans-serif" font-size="11" font-weight="600" fill="#18181b" text-anchor="middle">IN</text>
    <text x="148" y="784" font-family="Inter,sans-serif" font-size="13" font-weight="500" fill="#18181b">Isabella Nguyen</text>
    <text x="148" y="800" font-family="Inter,sans-serif" font-size="12" fill="#71717a">Completed onboarding</text>
    <text x="660" y="792" font-family="Inter,sans-serif" font-size="11" fill="#a1a1aa" text-anchor="end">1 hr ago</text>

    <!-- Quick Actions -->
    <rect x="740" y="612" width="600" height="260" rx="8" fill="#fff" stroke="#e4e4e7"/>
    <text x="764" y="646" font-family="Inter,sans-serif" font-size="17" font-weight="600" fill="#18181b">Quick Actions</text>
    <text x="764" y="666" font-family="Inter,sans-serif" font-size="13" fill="#71717a">Common tasks and shortcuts</text>

    <rect x="764" y="696" width="120" height="40" rx="8" fill="#fff" stroke="#e4e4e7"/>
    <text x="794" y="721" font-family="Inter,sans-serif" font-size="13" font-weight="500" fill="#18181b">Add User</text>

    <rect x="896" y="696" width="140" height="40" rx="8" fill="#fff" stroke="#e4e4e7"/>
    <text x="920" y="721" font-family="Inter,sans-serif" font-size="13" font-weight="500" fill="#18181b">Create Report</text>

    <rect x="1048" y="696" width="130" height="40" rx="8" fill="#fff" stroke="#e4e4e7"/>
    <text x="1074" y="721" font-family="Inter,sans-serif" font-size="13" font-weight="500" fill="#18181b">Send Invoice</text>

    <rect x="1190" y="696" width="130" height="40" rx="8" fill="#fff" stroke="#e4e4e7"/>
    <text x="1212" y="721" font-family="Inter,sans-serif" font-size="13" font-weight="500" fill="#18181b">View Settings</text>
  </g>
</svg>
