<svg xmlns="http://www.w3.org/2000/svg" fill="none" viewBox="0 0 1440 900"><rect width="1440" height="900" fill="#fafafa"/><rect width="1440" height="64" fill="#fff" stroke="#e4e4e7" stroke-width="1"/><rect width="24" height="24" x="24" y="20" fill="#18181b" rx="6"/><text x="60" y="37" fill="#18181b" font-family="Inter,sans-serif" font-size="16" font-weight="600">qwen-ui-lab</text><text x="60" y="52" fill="#71717a" font-family="Inter,sans-serif" font-size="10">AI-assisted UI scaffolding</text><circle cx="1390" cy="32" r="16" fill="#f4f4f5" stroke="#e4e4e7"/><path fill="none" stroke="#18181b" stroke-width="1.5" d="M1384 32a6 6 0 1 1 6-6 5 5 0 0 0 6 6z"/><text x="80" y="110" fill="#18181b" font-family="Inter,sans-serif" font-size="28" font-weight="700">Dashboard</text><text x="80" y="134" fill="#71717a" font-family="Inter,sans-serif" font-size="14">Welcome back! Here&apos;s what&apos;s happening with your platform.</text><g><rect width="300" height="120" x="80" y="164" fill="#fff" stroke="#e4e4e7" rx="8"/><text x="104" y="194" fill="#71717a" font-family="Inter,sans-serif" font-size="13">Total Revenue</text><text x="104" y="228" fill="#18181b" font-family="Inter,sans-serif" font-size="26" font-weight="700">$45,231</text><text x="104" y="256" fill="#059669" font-family="Inter,sans-serif" font-size="12">↑ +20.1%</text><text x="166" y="256" fill="#71717a" font-family="Inter,sans-serif" font-size="12">vs last month</text><rect width="300" height="120" x="400" y="164" fill="#fff" stroke="#e4e4e7" rx="8"/><text x="424" y="194" fill="#71717a" font-family="Inter,sans-serif" font-size="13">Subscriptions</text><text x="424" y="228" fill="#18181b" font-family="Inter,sans-serif" font-size="26" font-weight="700">+2,350</text><text x="424" y="256" fill="#059669" font-family="Inter,sans-serif" font-size="12">↑ +180.1%</text><text x="500" y="256" fill="#71717a" font-family="Inter,sans-serif" font-size="12">vs last month</text><rect width="300" height="120" x="720" y="164" fill="#fff" stroke="#e4e4e7" rx="8"/><text x="744" y="194" fill="#71717a" font-family="Inter,sans-serif" font-size="13">Sales</text><text x="744" y="228" fill="#18181b" font-family="Inter,sans-serif" font-size="26" font-weight="700">+12,234</text><text x="744" y="256" fill="#059669" font-family="Inter,sans-serif" font-size="12">↑ +19%</text><text x="798" y="256" fill="#71717a" font-family="Inter,sans-serif" font-size="12">vs last month</text><rect width="300" height="120" x="1040" y="164" fill="#fff" stroke="#e4e4e7" rx="8"/><text x="1064" y="194" fill="#71717a" font-family="Inter,sans-serif" font-size="13">Active Now</text><text x="1064" y="228" fill="#18181b" font-family="Inter,sans-serif" font-size="26" font-weight="700">+573</text><text x="1064" y="256" fill="#dc2626" font-family="Inter,sans-serif" font-size="12">↓ -2.5%</text><text x="1122" y="256" fill="#71717a" font-family="Inter,sans-serif" font-size="12">vs last month</text></g><g><rect width="720" height="280" x="80" y="308" fill="#fff" stroke="#e4e4e7" rx="8"/><text x="104" y="342" fill="#18181b" font-family="Inter,sans-serif" font-size="17" font-weight="600">Revenue Overview</text><text x="104" y="362" fill="#71717a" font-family="Inter,sans-serif" font-size="13">Monthly revenue trend</text><rect width="60" height="24" x="140" y="390" fill="#f4f4f5" rx="4"/><rect width="22" height="24" x="140" y="390" fill="#18181b" rx="4"/><text x="104" y="407" fill="#71717a" font-family="Inter,sans-serif" font-size="11">Jan</text><text x="720" y="407" fill="#18181b" font-family="Inter,sans-serif" font-size="12" font-weight="600" text-anchor="end">$4,000</text><rect width="60" height="24" x="140" y="422" fill="#f4f4f5" rx="4"/><rect width="16" height="24" x="140" y="422" fill="#18181b" rx="4"/><text x="104" y="439" fill="#71717a" font-family="Inter,sans-serif" font-size="11">Feb</text><text x="720" y="439" fill="#18181b" font-family="Inter,sans-serif" font-size="12" font-weight="600" text-anchor="end">$3,000</text><rect width="60" height="24" x="140" y="454" fill="#f4f4f5" rx="4"/><rect width="30" height="24" x="140" y="454" fill="#18181b" rx="4"/><text x="104" y="471" fill="#71717a" font-family="Inter,sans-serif" font-size="11">Mar</text><text x="720" y="471" fill="#18181b" font-family="Inter,sans-serif" font-size="12" font-weight="600" text-anchor="end">$5,000</text><rect width="60" height="24" x="140" y="486" fill="#f4f4f5" rx="4"/><rect width="27" height="24" x="140" y="486" fill="#18181b" rx="4"/><text x="104" y="503" fill="#71717a" font-family="Inter,sans-serif" font-size="11">Apr</text><text x="720" y="503" fill="#18181b" font-family="Inter,sans-serif" font-size="12" font-weight="600" text-anchor="end">$4,500</text><rect width="60" height="24" x="140" y="518" fill="#f4f4f5" rx="4"/><rect width="40" height="24" x="140" y="518" fill="#18181b" rx="4"/><text x="104" y="535" fill="#71717a" font-family="Inter,sans-serif" font-size="11">May</text><text x="720" y="535" fill="#18181b" font-family="Inter,sans-serif" font-size="12" font-weight="600" text-anchor="end">$6,000</text><rect width="60" height="24" x="140" y="550" fill="#f4f4f5" rx="4"/><rect width="36" height="24" x="140" y="550" fill="#18181b" rx="4"/><text x="104" y="567" fill="#71717a" font-family="Inter,sans-serif" font-size="11">Jun</text><text x="720" y="567" fill="#18181b" font-family="Inter,sans-serif" font-size="12" font-weight="600" text-anchor="end">$5,500</text><rect width="520" height="280" x="820" y="308" fill="#fff" stroke="#e4e4e7" rx="8"/><text x="844" y="342" fill="#18181b" font-family="Inter,sans-serif" font-size="17" font-weight="600">Performance Chart</text><text x="844" y="362" fill="#71717a" font-family="Inter,sans-serif" font-size="13">Visual analytics placeholder</text><rect width="440" height="180" x="860" y="380" fill="#f4f4f5" stroke="#e4e4e7" stroke-dasharray="6 4" rx="6"/><text x="1080" y="478" fill="#a1a1aa" font-family="Inter,sans-serif" font-size="13" text-anchor="middle">Chart integration pending</text></g><g><rect width="640" height="260" x="80" y="612" fill="#fff" stroke="#e4e4e7" rx="8"/><text x="104" y="646" fill="#18181b" font-family="Inter,sans-serif" font-size="17" font-weight="600">Recent Activity</text><text x="104" y="666" fill="#71717a" font-family="Inter,sans-serif" font-size="13">Latest user interactions</text><circle cx="120" cy="700" r="16" fill="#f4f4f5"/><text x="116" y="705" fill="#18181b" font-family="Inter,sans-serif" font-size="11" font-weight="600" text-anchor="middle">OM</text><text x="148" y="696" fill="#18181b" font-family="Inter,sans-serif" font-size="13" font-weight="500">Olivia Martin</text><text x="148" y="712" fill="#71717a" font-family="Inter,sans-serif" font-size="12">Upgraded to Pro plan</text><text x="660" y="704" fill="#a1a1aa" font-family="Inter,sans-serif" font-size="11" text-anchor="end">2 min ago</text><circle cx="120" cy="744" r="16" fill="#f4f4f5"/><text x="116" y="749" fill="#18181b" font-family="Inter,sans-serif" font-size="11" font-weight="600" text-anchor="middle">JL</text><text x="148" y="740" fill="#18181b" font-family="Inter,sans-serif" font-size="13" font-weight="500">Jackson Lee</text><text x="148" y="756" fill="#71717a" font-family="Inter,sans-serif" font-size="12">Submitted a support ticket</text><text x="660" y="748" fill="#a1a1aa" font-family="Inter,sans-serif" font-size="11" text-anchor="end">15 min ago</text><circle cx="120" cy="788" r="16" fill="#f4f4f5"/><text x="116" y="793" fill="#18181b" font-family="Inter,sans-serif" font-size="11" font-weight="600" text-anchor="middle">IN</text><text x="148" y="784" fill="#18181b" font-family="Inter,sans-serif" font-size="13" font-weight="500">Isabella Nguyen</text><text x="148" y="800" fill="#71717a" font-family="Inter,sans-serif" font-size="12">Completed onboarding</text><text x="660" y="792" fill="#a1a1aa" font-family="Inter,sans-serif" font-size="11" text-anchor="end">1 hr ago</text><rect width="600" height="260" x="740" y="612" fill="#fff" stroke="#e4e4e7" rx="8"/><text x="764" y="646" fill="#18181b" font-family="Inter,sans-serif" font-size="17" font-weight="600">Quick Actions</text><text x="764" y="666" fill="#71717a" font-family="Inter,sans-serif" font-size="13">Common tasks and shortcuts</text><rect width="120" height="40" x="764" y="696" fill="#fff" stroke="#e4e4e7" rx="8"/><text x="794" y="721" fill="#18181b" font-family="Inter,sans-serif" font-size="13" font-weight="500">Add User</text><rect width="140" height="40" x="896" y="696" fill="#fff" stroke="#e4e4e7" rx="8"/><text x="920" y="721" fill="#18181b" font-family="Inter,sans-serif" font-size="13" font-weight="500">Create Report</text><rect width="130" height="40" x="1048" y="696" fill="#fff" stroke="#e4e4e7" rx="8"/><text x="1074" y="721" fill="#18181b" font-family="Inter,sans-serif" font-size="13" font-weight="500">Send Invoice</text><rect width="130" height="40" x="1190" y="696" fill="#fff" stroke="#e4e4e7" rx="8"/><text x="1212" y="721" fill="#18181b" font-family="Inter,sans-serif" font-size="13" font-weight="500">View Settings</text></g></svg>