<svg xmlns="http://www.w3.org/2000/svg" fill="none" viewBox="0 0 1200 720"><rect width="1200" height="720" fill="#fafafa"/><rect width="1200" height="56" fill="#fff" stroke="#e4e4e7"/><rect width="24" height="24" x="24" y="16" fill="#18181b" rx="6"/><text x="60" y="36" fill="#18181b" font-family="Inter,sans-serif" font-size="15" font-weight="600">Shop</text><rect width="200" height="28" x="900" y="14" fill="#f4f4f5" stroke="#e4e4e7" rx="8"/><text x="916" y="33" fill="#a1a1aa" font-family="Inter,sans-serif" font-size="12">Search products&amp;</text><circle cx="1156" cy="28" r="14" fill="#18181b"/><text x="1156" y="32" fill="#fff" font-family="Inter,sans-serif" font-size="10" font-weight="600" text-anchor="middle">3</text><rect width="200" height="600" x="24" y="80" fill="#fff" stroke="#e4e4e7" rx="8"/><text x="44" y="112" fill="#18181b" font-family="Inter,sans-serif" font-size="13" font-weight="600">Filters</text><text x="44" y="148" fill="#71717a" font-family="Inter,sans-serif" font-size="12" font-weight="500">Category</text><rect width="12" height="12" x="44" y="158" fill="#18181b" rx="2"/><text x="64" y="169" fill="#18181b" font-family="Inter,sans-serif" font-size="12">Electronics</text><rect width="12" height="12" x="44" y="180" fill="#fff" stroke="#e4e4e7" rx="2"/><text x="64" y="191" fill="#71717a" font-family="Inter,sans-serif" font-size="12">Apparel</text><rect width="12" height="12" x="44" y="202" fill="#fff" stroke="#e4e4e7" rx="2"/><text x="64" y="213" fill="#71717a" font-family="Inter,sans-serif" font-size="12">Home</text><text x="44" y="252" fill="#71717a" font-family="Inter,sans-serif" font-size="12" font-weight="500">Price</text><rect width="160" height="4" x="44" y="264" fill="#e4e4e7" rx="2"/><rect width="96" height="4" x="44" y="264" fill="#18181b" rx="2"/><text x="248" y="108" fill="#18181b" font-family="Inter,sans-serif" font-size="20" font-weight="700">All products</text><text x="248" y="130" fill="#71717a" font-family="Inter,sans-serif" font-size="13">128 items яПН sorted by popular</text><rect width="210" height="240" x="248" y="152" fill="#fff" stroke="#e4e4e7" rx="8"/><rect width="186" height="120" x="260" y="164" fill="#f4f4f5" rx="6"/><text x="260" y="308" fill="#18181b" font-family="Inter,sans-serif" font-size="14" font-weight="600">Wireless earbuds</text><text x="260" y="328" fill="#71717a" font-family="Inter,sans-serif" font-size="13">$79.00</text><rect width="80" height="32" x="260" y="344" fill="#18181b" rx="6"/><text x="300" y="365" fill="#fff" font-family="Inter,sans-serif" font-size="12" font-weight="600" text-anchor="middle">Add</text><rect width="210" height="240" x="478" y="152" fill="#fff" stroke="#e4e4e7" rx="8"/><rect width="186" height="120" x="490" y="164" fill="#f4f4f5" rx="6"/><text x="490" y="308" fill="#18181b" font-family="Inter,sans-serif" font-size="14" font-weight="600">Smart watch</text><text x="490" y="328" fill="#71717a" font-family="Inter,sans-serif" font-size="13">$199.00</text><rect width="80" height="32" x="490" y="344" fill="#18181b" rx="6"/><text x="530" y="365" fill="#fff" font-family="Inter,sans-serif" font-size="12" font-weight="600" text-anchor="middle">Add</text><rect width="210" height="240" x="708" y="152" fill="#fff" stroke="#e4e4e7" rx="8"/><rect width="186" height="120" x="720" y="164" fill="#f4f4f5" rx="6"/><text x="720" y="308" fill="#18181b" font-family="Inter,sans-serif" font-size="14" font-weight="600">USB-C hub</text><text x="720" y="328" fill="#71717a" font-family="Inter,sans-serif" font-size="13">$49.00</text><rect width="80" height="32" x="720" y="344" fill="#18181b" rx="6"/><text x="760" y="365" fill="#fff" font-family="Inter,sans-serif" font-size="12" font-weight="600" text-anchor="middle">Add</text><rect width="210" height="240" x="938" y="152" fill="#fff" stroke="#e4e4e7" rx="8"/><rect width="186" height="120" x="950" y="164" fill="#f4f4f5" rx="6"/><text x="950" y="308" fill="#18181b" font-family="Inter,sans-serif" font-size="14" font-weight="600">Desk lamp</text><text x="950" y="328" fill="#71717a" font-family="Inter,sans-serif" font-size="13">$59.00</text><rect width="80" height="32" x="950" y="344" fill="#18181b" rx="6"/><text x="990" y="365" fill="#fff" font-family="Inter,sans-serif" font-size="12" font-weight="600" text-anchor="middle">Add</text><rect width="210" height="240" x="248" y="412" fill="#fff" stroke="#e4e4e7" rx="8"/><rect width="186" height="120" x="260" y="424" fill="#f4f4f5" rx="6"/><text x="260" y="568" fill="#18181b" font-family="Inter,sans-serif" font-size="14" font-weight="600">Mechanical keyboard</text><text x="260" y="588" fill="#71717a" font-family="Inter,sans-serif" font-size="13">$129.00</text><rect width="210" height="240" x="478" y="412" fill="#fff" stroke="#e4e4e7" rx="8"/><rect width="186" height="120" x="490" y="424" fill="#f4f4f5" rx="6"/><text x="490" y="568" fill="#18181b" font-family="Inter,sans-serif" font-size="14" font-weight="600">Monitor stand</text><text x="490" y="588" fill="#71717a" font-family="Inter,sans-serif" font-size="13">$89.00</text><rect width="210" height="240" x="708" y="412" fill="#fff" stroke="#e4e4e7" rx="8"/><rect width="186" height="120" x="720" y="424" fill="#f4f4f5" rx="6"/><text x="720" y="568" fill="#18181b" font-family="Inter,sans-serif" font-size="14" font-weight="600">Webcam HD</text><text x="720" y="588" fill="#71717a" font-family="Inter,sans-serif" font-size="13">$69.00</text><rect width="210" height="240" x="938" y="412" fill="#fff" stroke="#e4e4e7" rx="8"/><rect width="186" height="120" x="950" y="424" fill="#f4f4f5" rx="6"/><text x="950" y="568" fill="#18181b" font-family="Inter,sans-serif" font-size="14" font-weight="600">Laptop sleeve</text><text x="950" y="588" fill="#71717a" font-family="Inter,sans-serif" font-size="13">$39.00</text></svg>