<svg xmlns="http://www.w3.org/2000/svg" viewBox="0 0 1200 720" fill="none">
  <rect width="1200" height="720" fill="#fafafa"/>
  <!-- Top nav -->
  <rect width="1200" height="56" fill="#fff" stroke="#e4e4e7"/>
  <rect x="24" y="16" width="24" height="24" rx="6" fill="#18181b"/>
  <text x="60" y="36" font-family="Inter,sans-serif" font-size="15" font-weight="600" fill="#18181b">Shop</text>
  <rect x="900" y="14" width="200" height="28" rx="8" fill="#f4f4f5" stroke="#e4e4e7"/>
  <text x="916" y="33" font-family="Inter,sans-serif" font-size="12" fill="#a1a1aa">Search products&amp;</text>
  <circle cx="1156" cy="28" r="14" fill="#18181b"/>
  <text x="1156" y="32" font-family="Inter,sans-serif" font-size="10" font-weight="600" fill="#fff" text-anchor="middle">3</text>

  <!-- Filter sidebar -->
  <rect x="24" y="80" width="200" height="600" rx="8" fill="#fff" stroke="#e4e4e7"/>
  <text x="44" y="112" font-family="Inter,sans-serif" font-size="13" font-weight="600" fill="#18181b">Filters</text>
  <text x="44" y="148" font-family="Inter,sans-serif" font-size="12" font-weight="500" fill="#71717a">Category</text>
  <rect x="44" y="158" width="12" height="12" rx="2" fill="#18181b"/>
  <text x="64" y="169" font-family="Inter,sans-serif" font-size="12" fill="#18181b">Electronics</text>
  <rect x="44" y="180" width="12" height="12" rx="2" fill="#fff" stroke="#e4e4e7"/>
  <text x="64" y="191" font-family="Inter,sans-serif" font-size="12" fill="#71717a">Apparel</text>
  <rect x="44" y="202" width="12" height="12" rx="2" fill="#fff" stroke="#e4e4e7"/>
  <text x="64" y="213" font-family="Inter,sans-serif" font-size="12" fill="#71717a">Home</text>
  <text x="44" y="252" font-family="Inter,sans-serif" font-size="12" font-weight="500" fill="#71717a">Price</text>
  <rect x="44" y="264" width="160" height="4" rx="2" fill="#e4e4e7"/>
  <rect x="44" y="264" width="96" height="4" rx="2" fill="#18181b"/>

  <!-- Product grid -->
  <text x="248" y="108" font-family="Inter,sans-serif" font-size="20" font-weight="700" fill="#18181b">All products</text>
  <text x="248" y="130" font-family="Inter,sans-serif" font-size="13" fill="#71717a">128 items яПН sorted by popular</text>

  <!-- Row 1 -->
  <rect x="248" y="152" width="210" height="240" rx="8" fill="#fff" stroke="#e4e4e7"/>
  <rect x="260" y="164" width="186" height="120" rx="6" fill="#f4f4f5"/>
  <text x="260" y="308" font-family="Inter,sans-serif" font-size="14" font-weight="600" fill="#18181b">Wireless earbuds</text>
  <text x="260" y="328" font-family="Inter,sans-serif" font-size="13" fill="#71717a">$79.00</text>
  <rect x="260" y="344" width="80" height="32" rx="6" fill="#18181b"/>
  <text x="300" y="365" font-family="Inter,sans-serif" font-size="12" font-weight="600" fill="#fff" text-anchor="middle">Add</text>

  <rect x="478" y="152" width="210" height="240" rx="8" fill="#fff" stroke="#e4e4e7"/>
  <rect x="490" y="164" width="186" height="120" rx="6" fill="#f4f4f5"/>
  <text x="490" y="308" font-family="Inter,sans-serif" font-size="14" font-weight="600" fill="#18181b">Smart watch</text>
  <text x="490" y="328" font-family="Inter,sans-serif" font-size="13" fill="#71717a">$199.00</text>
  <rect x="490" y="344" width="80" height="32" rx="6" fill="#18181b"/>
  <text x="530" y="365" font-family="Inter,sans-serif" font-size="12" font-weight="600" fill="#fff" text-anchor="middle">Add</text>

  <rect x="708" y="152" width="210" height="240" rx="8" fill="#fff" stroke="#e4e4e7"/>
  <rect x="720" y="164" width="186" height="120" rx="6" fill="#f4f4f5"/>
  <text x="720" y="308" font-family="Inter,sans-serif" font-size="14" font-weight="600" fill="#18181b">USB-C hub</text>
  <text x="720" y="328" font-family="Inter,sans-serif" font-size="13" fill="#71717a">$49.00</text>
  <rect x="720" y="344" width="80" height="32" rx="6" fill="#18181b"/>
  <text x="760" y="365" font-family="Inter,sans-serif" font-size="12" font-weight="600" fill="#fff" text-anchor="middle">Add</text>

  <rect x="938" y="152" width="210" height="240" rx="8" fill="#fff" stroke="#e4e4e7"/>
  <rect x="950" y="164" width="186" height="120" rx="6" fill="#f4f4f5"/>
  <text x="950" y="308" font-family="Inter,sans-serif" font-size="14" font-weight="600" fill="#18181b">Desk lamp</text>
  <text x="950" y="328" font-family="Inter,sans-serif" font-size="13" fill="#71717a">$59.00</text>
  <rect x="950" y="344" width="80" height="32" rx="6" fill="#18181b"/>
  <text x="990" y="365" font-family="Inter,sans-serif" font-size="12" font-weight="600" fill="#fff" text-anchor="middle">Add</text>

  <!-- Row 2 -->
  <rect x="248" y="412" width="210" height="240" rx="8" fill="#fff" stroke="#e4e4e7"/>
  <rect x="260" y="424" width="186" height="120" rx="6" fill="#f4f4f5"/>
  <text x="260" y="568" font-family="Inter,sans-serif" font-size="14" font-weight="600" fill="#18181b">Mechanical keyboard</text>
  <text x="260" y="588" font-family="Inter,sans-serif" font-size="13" fill="#71717a">$129.00</text>

  <rect x="478" y="412" width="210" height="240" rx="8" fill="#fff" stroke="#e4e4e7"/>
  <rect x="490" y="424" width="186" height="120" rx="6" fill="#f4f4f5"/>
  <text x="490" y="568" font-family="Inter,sans-serif" font-size="14" font-weight="600" fill="#18181b">Monitor stand</text>
  <text x="490" y="588" font-family="Inter,sans-serif" font-size="13" fill="#71717a">$89.00</text>

  <rect x="708" y="412" width="210" height="240" rx="8" fill="#fff" stroke="#e4e4e7"/>
  <rect x="720" y="424" width="186" height="120" rx="6" fill="#f4f4f5"/>
  <text x="720" y="568" font-family="Inter,sans-serif" font-size="14" font-weight="600" fill="#18181b">Webcam HD</text>
  <text x="720" y="588" font-family="Inter,sans-serif" font-size="13" fill="#71717a">$69.00</text>

  <rect x="938" y="412" width="210" height="240" rx="8" fill="#fff" stroke="#e4e4e7"/>
  <rect x="950" y="424" width="186" height="120" rx="6" fill="#f4f4f5"/>
  <text x="950" y="568" font-family="Inter,sans-serif" font-size="14" font-weight="600" fill="#18181b">Laptop sleeve</text>
  <text x="950" y="588" font-family="Inter,sans-serif" font-size="13" fill="#71717a">$39.00</text>
</svg>
