<svg xmlns="http://www.w3.org/2000/svg" fill="none" viewBox="0 0 1440 900"><rect width="1440" height="900" fill="#fff"/><rect width="1440" height="64" fill="#fff" stroke="#e4e4e7"/><rect width="24" height="24" x="80" y="20" fill="#18181b" rx="6"/><text x="116" y="40" fill="#18181b" font-family="Inter,sans-serif" font-size="16" font-weight="600">qwen-ui-lab</text><text x="520" y="40" fill="#71717a" font-family="Inter,sans-serif" font-size="14">Features</text><text x="620" y="40" fill="#71717a" font-family="Inter,sans-serif" font-size="14">Pricing</text><text x="700" y="40" fill="#71717a" font-family="Inter,sans-serif" font-size="14">Docs</text><rect width="120" height="36" x="1240" y="18" fill="#18181b" rx="8"/><text x="1300" y="41" fill="#fff" font-family="Inter,sans-serif" font-size="13" font-weight="600" text-anchor="middle">Get started</text><text x="720" y="200" fill="#18181b" font-family="Inter,sans-serif" font-size="48" font-weight="800" text-anchor="middle">Ship UI faster with AI</text><text x="720" y="248" fill="#18181b" font-family="Inter,sans-serif" font-size="48" font-weight="800" text-anchor="middle">assisted scaffolding</text><text x="720" y="296" fill="#71717a" font-family="Inter,sans-serif" font-size="16" text-anchor="middle">Upload a screenshot, get a component plan, and export a React package.</text><rect width="140" height="44" x="560" y="328" fill="#18181b" rx="8"/><text x="630" y="356" fill="#fff" font-family="Inter,sans-serif" font-size="14" font-weight="600" text-anchor="middle">Start free</text><rect width="140" height="44" x="720" y="328" fill="#fff" stroke="#e4e4e7" rx="8"/><text x="790" y="356" fill="#18181b" font-family="Inter,sans-serif" font-size="14" font-weight="600" text-anchor="middle">View sample</text><rect width="380" height="160" x="120" y="420" fill="#fafafa" stroke="#e4e4e7" rx="10"/><rect width="32" height="32" x="144" y="444" fill="#18181b" rx="8"/><text x="144" y="500" fill="#18181b" font-family="Inter,sans-serif" font-size="16" font-weight="600">Visual analysis</text><text x="144" y="524" fill="#71717a" font-family="Inter,sans-serif" font-size="13">Detect layout patterns from any screenshot.</text><rect width="380" height="160" x="530" y="420" fill="#fafafa" stroke="#e4e4e7" rx="10"/><rect width="32" height="32" x="554" y="444" fill="#18181b" rx="8"/><text x="554" y="500" fill="#18181b" font-family="Inter,sans-serif" font-size="16" font-weight="600">Component map</text><text x="554" y="524" fill="#71717a" font-family="Inter,sans-serif" font-size="13">Structured plan with accessibility notes.</text><rect width="380" height="160" x="940" y="420" fill="#fafafa" stroke="#e4e4e7" rx="10"/><rect width="32" height="32" x="964" y="444" fill="#18181b" rx="8"/><text x="964" y="500" fill="#18181b" font-family="Inter,sans-serif" font-size="16" font-weight="600">Export code</text><text x="964" y="524" fill="#71717a" font-family="Inter,sans-serif" font-size="13">React + Tailwind scaffold ready to iterate.</text><rect width="1280" height="80" x="80" y="620" fill="#fafafa" stroke="#e4e4e7" rx="10"/><text x="720" y="660" fill="#52525b" font-family="Inter,sans-serif" font-size="15" text-anchor="middle">&quot;Cut our prototype time in half.&quot;  Jordan Lee, Product Design Lead</text><rect width="320" height="120" x="200" y="730" fill="#fff" stroke="#e4e4e7" rx="10"/><text x="360" y="768" fill="#18181b" font-family="Inter,sans-serif" font-size="16" font-weight="600" text-anchor="middle">Free</text><text x="360" y="796" fill="#18181b" font-family="Inter,sans-serif" font-size="28" font-weight="700" text-anchor="middle">$0</text><rect width="320" height="120" x="560" y="730" fill="#18181b" rx="10"/><text x="720" y="768" fill="#fff" font-family="Inter,sans-serif" font-size="16" font-weight="600" text-anchor="middle">Pro</text><text x="720" y="796" fill="#fff" font-family="Inter,sans-serif" font-size="28" font-weight="700" text-anchor="middle">$29/mo</text><rect width="320" height="120" x="920" y="730" fill="#fff" stroke="#e4e4e7" rx="10"/><text x="1080" y="768" fill="#18181b" font-family="Inter,sans-serif" font-size="16" font-weight="600" text-anchor="middle">Enterprise</text><text x="1080" y="796" fill="#71717a" font-family="Inter,sans-serif" font-size="14" text-anchor="middle">Contact sales</text></svg>