<svg xmlns="http://www.w3.org/2000/svg" fill="none" viewBox="0 0 390 844"><rect width="390" height="844" fill="#fafafa"/><rect width="390" height="844" x="0" y="0" fill="#fafafa" stroke="#e4e4e7" rx="0"/><rect width="390" height="44" fill="#fff"/><text x="24" y="28" fill="#18181b" font-family="Inter,sans-serif" font-size="14" font-weight="600">9:41</text><rect width="390" height="56" y="44" fill="#fff" stroke="#e4e4e7"/><text x="24" y="78" fill="#18181b" font-family="Inter,sans-serif" font-size="18" font-weight="700">Feed</text><circle cx="350" cy="72" r="14" fill="#f4f4f5" stroke="#e4e4e7"/><rect width="358" height="100" x="16" y="116" fill="#fff" stroke="#e4e4e7" rx="10"/><circle cx="48" cy="156" r="20" fill="#f4f4f5"/><text x="44" y="161" fill="#18181b" font-family="Inter,sans-serif" font-size="11" font-weight="600" text-anchor="middle">SK</text><text x="80" y="148" fill="#18181b" font-family="Inter,sans-serif" font-size="14" font-weight="600">Sarah Kim</text><text x="80" y="166" fill="#71717a" font-family="Inter,sans-serif" font-size="12">Posted a new design review</text><text x="80" y="198" fill="#a1a1aa" font-family="Inter,sans-serif" font-size="11">2 hours ago</text><rect width="358" height="100" x="16" y="228" fill="#fff" stroke="#e4e4e7" rx="10"/><circle cx="48" cy="268" r="20" fill="#f4f4f5"/><text x="44" y="273" fill="#18181b" font-family="Inter,sans-serif" font-size="11" font-weight="600" text-anchor="middle">MR</text><text x="80" y="260" fill="#18181b" font-family="Inter,sans-serif" font-size="14" font-weight="600">Marcus Rivera</text><text x="80" y="278" fill="#71717a" font-family="Inter,sans-serif" font-size="12">Shared a component library link</text><text x="80" y="310" fill="#a1a1aa" font-family="Inter,sans-serif" font-size="11">5 hours ago</text><rect width="358" height="100" x="16" y="340" fill="#fff" stroke="#e4e4e7" rx="10"/><circle cx="48" cy="380" r="20" fill="#f4f4f5"/><text x="44" y="385" fill="#18181b" font-family="Inter,sans-serif" font-size="11" font-weight="600" text-anchor="middle">EP</text><text x="80" y="372" fill="#18181b" font-family="Inter,sans-serif" font-size="14" font-weight="600">Elena Park</text><text x="80" y="390" fill="#71717a" font-family="Inter,sans-serif" font-size="12">Commented on your wireframe</text><text x="80" y="422" fill="#a1a1aa" font-family="Inter,sans-serif" font-size="11">Yesterday</text><circle cx="330" cy="720" r="28" fill="#18181b"/><text x="330" y="727" fill="#fff" font-family="Inter,sans-serif" font-size="24" font-weight="300" text-anchor="middle">+</text><rect width="390" height="64" y="780" fill="#fff" stroke="#e4e4e7"/><text x="65" y="818" fill="#18181b" font-family="Inter,sans-serif" font-size="11" font-weight="600" text-anchor="middle">Home</text><rect width="30" height="3" x="50" y="792" fill="#18181b" rx="1.5"/><text x="195" y="818" fill="#71717a" font-family="Inter,sans-serif" font-size="11" text-anchor="middle">Search</text><text x="325" y="818" fill="#71717a" font-family="Inter,sans-serif" font-size="11" text-anchor="middle">Profile</text></svg>