<svg xmlns="http://www.w3.org/2000/svg" viewBox="0 0 390 844" fill="none">
  <rect width="390" height="844" fill="#fafafa"/>
  <!-- Phone frame hint -->
  <rect x="0" y="0" width="390" height="844" rx="0" fill="#fafafa" stroke="#e4e4e7"/>
  <!-- Status bar -->
  <rect width="390" height="44" fill="#fff"/>
  <text x="24" y="28" font-family="Inter,sans-serif" font-size="14" font-weight="600" fill="#18181b">9:41</text>
  <!-- Header -->
  <rect y="44" width="390" height="56" fill="#fff" stroke="#e4e4e7"/>
  <text x="24" y="78" font-family="Inter,sans-serif" font-size="18" font-weight="700" fill="#18181b">Feed</text>
  <circle cx="350" cy="72" r="14" fill="#f4f4f5" stroke="#e4e4e7"/>
  <!-- Card 1 -->
  <rect x="16" y="116" width="358" height="100" rx="10" fill="#fff" stroke="#e4e4e7"/>
  <circle cx="48" cy="156" r="20" fill="#f4f4f5"/>
  <text x="44" y="161" font-family="Inter,sans-serif" font-size="11" font-weight="600" fill="#18181b" text-anchor="middle">SK</text>
  <text x="80" y="148" font-family="Inter,sans-serif" font-size="14" font-weight="600" fill="#18181b">Sarah Kim</text>
  <text x="80" y="166" font-family="Inter,sans-serif" font-size="12" fill="#71717a">Posted a new design review</text>
  <text x="80" y="198" font-family="Inter,sans-serif" font-size="11" fill="#a1a1aa">2 hours ago</text>
  <!-- Card 2 -->
  <rect x="16" y="228" width="358" height="100" rx="10" fill="#fff" stroke="#e4e4e7"/>
  <circle cx="48" cy="268" r="20" fill="#f4f4f5"/>
  <text x="44" y="273" font-family="Inter,sans-serif" font-size="11" font-weight="600" fill="#18181b" text-anchor="middle">MR</text>
  <text x="80" y="260" font-family="Inter,sans-serif" font-size="14" font-weight="600" fill="#18181b">Marcus Rivera</text>
  <text x="80" y="278" font-family="Inter,sans-serif" font-size="12" fill="#71717a">Shared a component library link</text>
  <text x="80" y="310" font-family="Inter,sans-serif" font-size="11" fill="#a1a1aa">5 hours ago</text>
  <!-- Card 3 -->
  <rect x="16" y="340" width="358" height="100" rx="10" fill="#fff" stroke="#e4e4e7"/>
  <circle cx="48" cy="380" r="20" fill="#f4f4f5"/>
  <text x="44" y="385" font-family="Inter,sans-serif" font-size="11" font-weight="600" fill="#18181b" text-anchor="middle">EP</text>
  <text x="80" y="372" font-family="Inter,sans-serif" font-size="14" font-weight="600" fill="#18181b">Elena Park</text>
  <text x="80" y="390" font-family="Inter,sans-serif" font-size="12" fill="#71717a">Commented on your wireframe</text>
  <text x="80" y="422" font-family="Inter,sans-serif" font-size="11" fill="#a1a1aa">Yesterday</text>
  <!-- FAB -->
  <circle cx="330" cy="720" r="28" fill="#18181b"/>
  <text x="330" y="727" font-family="Inter,sans-serif" font-size="24" font-weight="300" fill="#fff" text-anchor="middle">+</text>
  <!-- Bottom nav -->
  <rect y="780" width="390" height="64" fill="#fff" stroke="#e4e4e7"/>
  <text x="65" y="818" font-family="Inter,sans-serif" font-size="11" font-weight="600" fill="#18181b" text-anchor="middle">Home</text>
  <rect x="50" y="792" width="30" height="3" rx="1.5" fill="#18181b"/>
  <text x="195" y="818" font-family="Inter,sans-serif" font-size="11" fill="#71717a" text-anchor="middle">Search</text>
  <text x="325" y="818" font-family="Inter,sans-serif" font-size="11" fill="#71717a" text-anchor="middle">Profile</text>
</svg>
