<svg xmlns="http://www.w3.org/2000/svg" fill="none" viewBox="0 0 1200 720"><rect width="1200" height="720" fill="#fafafa"/><text x="80" y="56" fill="#18181b" font-family="Inter,sans-serif" font-size="24" font-weight="700">Settings</text><text x="80" y="80" fill="#71717a" font-family="Inter,sans-serif" font-size="14">Manage your account and preferences</text><rect width="180" height="560" x="80" y="112" fill="#fff" stroke="#e4e4e7" rx="8"/><rect width="148" height="36" x="96" y="136" fill="#f4f4f5" rx="6"/><text x="112" y="159" fill="#18181b" font-family="Inter,sans-serif" font-size="14" font-weight="600">Profile</text><text x="112" y="199" fill="#71717a" font-family="Inter,sans-serif" font-size="14">Notifications</text><text x="112" y="235" fill="#71717a" font-family="Inter,sans-serif" font-size="14">Billing</text><rect width="840" height="560" x="280" y="112" fill="#fff" stroke="#e4e4e7" rx="8"/><text x="312" y="156" fill="#18181b" font-family="Inter,sans-serif" font-size="18" font-weight="600">Profile</text><text x="312" y="200" fill="#18181b" font-family="Inter,sans-serif" font-size="13" font-weight="500">Display name</text><rect width="400" height="40" x="312" y="210" fill="#fff" stroke="#e4e4e7" rx="8"/><text x="328" y="236" fill="#18181b" font-family="Inter,sans-serif" font-size="14">Alex Chen</text><text x="312" y="280" fill="#18181b" font-family="Inter,sans-serif" font-size="13" font-weight="500">Email</text><rect width="400" height="40" x="312" y="290" fill="#fff" stroke="#e4e4e7" rx="8"/><text x="328" y="316" fill="#18181b" font-family="Inter,sans-serif" font-size="14">alex@example.com</text><line x1="312" x2="1088" y1="360" y2="360" stroke="#e4e4e7"/><text x="312" y="396" fill="#18181b" font-family="Inter,sans-serif" font-size="18" font-weight="600">Notifications</text><text x="312" y="440" fill="#18181b" font-family="Inter,sans-serif" font-size="14">Email alerts</text><rect width="48" height="28" x="1040" y="424" fill="#18181b" rx="14"/><circle cx="1064" cy="438" r="10" fill="#fff"/><text x="312" y="488" fill="#18181b" font-family="Inter,sans-serif" font-size="14">Push notifications</text><rect width="48" height="28" x="1040" y="472" fill="#e4e4e7" rx="14"/><circle cx="1052" cy="486" r="10" fill="#fff"/><rect width="840" height="56" x="280" y="640" fill="#fff" stroke="#e4e4e7"/><rect width="80" height="36" x="960" y="652" fill="#fff" stroke="#e4e4e7" rx="8"/><text x="1000" y="675" fill="#18181b" font-family="Inter,sans-serif" font-size="13" font-weight="500" text-anchor="middle">Cancel</text><rect width="80" height="36" x="1056" y="652" fill="#18181b" rx="8"/><text x="1096" y="675" fill="#fff" font-family="Inter,sans-serif" font-size="13" font-weight="600" text-anchor="middle">Save</text></svg>