<svg xmlns="http://www.w3.org/2000/svg" viewBox="0 0 1440 900" fill="none">
  <rect width="1440" height="900" fill="#F8FAFC"/>
  <rect x="0" y="0" width="1440" height="76" fill="#111827"/>
  <rect x="32" y="24" width="160" height="28" rx="6" fill="#F9FAFB"/>
  <rect x="1030" y="22" width="118" height="32" rx="16" fill="#2563EB"/>
  <rect x="1164" y="22" width="118" height="32" rx="16" fill="#374151"/>
  <rect x="1298" y="22" width="86" height="32" rx="16" fill="#10B981"/>
  <rect x="0" y="76" width="232" height="824" fill="#FFFFFF"/>
  <rect x="28" y="116" width="164" height="16" rx="8" fill="#CBD5E1"/>
  <rect x="28" y="164" width="156" height="36" rx="8" fill="#E0F2FE"/>
  <rect x="28" y="220" width="140" height="16" rx="8" fill="#94A3B8"/>
  <rect x="28" y="264" width="154" height="16" rx="8" fill="#94A3B8"/>
  <rect x="28" y="308" width="126" height="16" rx="8" fill="#94A3B8"/>
  <rect x="28" y="352" width="148" height="16" rx="8" fill="#94A3B8"/>
  <rect x="264" y="112" width="250" height="124" rx="10" fill="#FFFFFF" stroke="#CBD5E1"/>
  <rect x="288" y="136" width="92" height="14" rx="7" fill="#64748B"/>
  <rect x="288" y="170" width="138" height="28" rx="8" fill="#111827"/>
  <rect x="454" y="154" width="34" height="58" rx="8" fill="#DBEAFE"/>
  <rect x="538" y="112" width="250" height="124" rx="10" fill="#FFFFFF" stroke="#CBD5E1"/>
  <rect x="562" y="136" width="104" height="14" rx="7" fill="#64748B"/>
  <rect x="562" y="170" width="128" height="28" rx="8" fill="#111827"/>
  <rect x="728" y="154" width="34" height="58" rx="8" fill="#DCFCE7"/>
  <rect x="812" y="112" width="250" height="124" rx="10" fill="#FFFFFF" stroke="#CBD5E1"/>
  <rect x="836" y="136" width="88" height="14" rx="7" fill="#64748B"/>
  <rect x="836" y="170" width="126" height="28" rx="8" fill="#111827"/>
  <rect x="1002" y="154" width="34" height="58" rx="8" fill="#FEF3C7"/>
  <rect x="1086" y="112" width="250" height="124" rx="10" fill="#FFFFFF" stroke="#CBD5E1"/>
  <rect x="1110" y="136" width="94" height="14" rx="7" fill="#64748B"/>
  <rect x="1110" y="170" width="132" height="28" rx="8" fill="#111827"/>
  <rect x="1276" y="154" width="34" height="58" rx="8" fill="#FCE7F3"/>
  <rect x="264" y="268" width="702" height="302" rx="12" fill="#FFFFFF" stroke="#CBD5E1"/>
  <rect x="292" y="296" width="180" height="18" rx="9" fill="#111827"/>
  <rect x="292" y="344" width="624" height="178" rx="8" fill="#F1F5F9"/>
  <path d="M316 490 C390 390 480 450 556 372 C650 278 760 436 916 336" stroke="#2563EB" stroke-width="8" stroke-linecap="round"/>
  <path d="M316 510 C414 486 478 520 554 468 C648 404 766 512 916 448" stroke="#10B981" stroke-width="8" stroke-linecap="round"/>
  <rect x="990" y="268" width="346" height="302" rx="12" fill="#FFFFFF" stroke="#CBD5E1"/>
  <rect x="1018" y="296" width="158" height="18" rx="9" fill="#111827"/>
  <circle cx="1162" cy="432" r="86" fill="#DBEAFE"/>
  <path d="M1162 346 A86 86 0 0 1 1236 476 L1162 432 Z" fill="#2563EB"/>
  <path d="M1162 346 A86 86 0 0 0 1088 476 L1162 432 Z" fill="#10B981"/>
  <rect x="264" y="600" width="1072" height="236" rx="12" fill="#FFFFFF" stroke="#CBD5E1"/>
  <rect x="292" y="628" width="172" height="18" rx="9" fill="#111827"/>
  <rect x="292" y="670" width="1016" height="1" fill="#CBD5E1"/>
  <g fill="#E2E8F0">
    <rect x="292" y="696" width="80" height="16" rx="8"/>
    <rect x="410" y="696" width="220" height="16" rx="8"/>
    <rect x="674" y="696" width="160" height="16" rx="8"/>
    <rect x="880" y="696" width="122" height="16" rx="8"/>
    <rect x="1060" y="696" width="148" height="16" rx="8"/>
    <rect x="292" y="740" width="80" height="16" rx="8"/>
    <rect x="410" y="740" width="250" height="16" rx="8"/>
    <rect x="674" y="740" width="154" height="16" rx="8"/>
    <rect x="880" y="740" width="118" height="16" rx="8"/>
    <rect x="1060" y="740" width="148" height="16" rx="8"/>
    <rect x="292" y="784" width="80" height="16" rx="8"/>
    <rect x="410" y="784" width="238" height="16" rx="8"/>
    <rect x="674" y="784" width="166" height="16" rx="8"/>
    <rect x="880" y="784" width="118" height="16" rx="8"/>
    <rect x="1060" y="784" width="148" height="16" rx="8"/>
  </g>
</svg>
