<svg xmlns="http://www.w3.org/2000/svg" fill="none" viewBox="0 0 1200 720"><rect width="1200" height="720" fill="#F8FAFC"/><rect width="1200" height="70" x="0" y="0" fill="#FFF" stroke="#CBD5E1"/><rect width="140" height="22" x="32" y="24" fill="#111827" rx="8"/><rect width="390" height="34" x="228" y="18" fill="#F1F5F9" stroke="#CBD5E1" rx="17"/><rect width="82" height="34" x="974" y="18" fill="#E0F2FE" rx="17"/><rect width="94" height="34" x="1070" y="18" fill="#2563EB" rx="17"/><rect width="216" height="560" x="32" y="104" fill="#FFF" stroke="#CBD5E1" rx="12"/><rect width="116" height="16" x="58" y="132" fill="#111827" rx="8"/><rect width="156" height="18" x="58" y="184" fill="#E2E8F0" rx="9"/><rect width="132" height="18" x="58" y="228" fill="#E2E8F0" rx="9"/><rect width="148" height="18" x="58" y="272" fill="#E2E8F0" rx="9"/><rect width="126" height="18" x="58" y="316" fill="#E2E8F0" rx="9"/><rect width="156" height="44" x="58" y="380" fill="#F1F5F9" rx="10"/><rect width="156" height="44" x="58" y="444" fill="#F1F5F9" rx="10"/><rect width="156" height="44" x="58" y="508" fill="#F1F5F9" rx="10"/><rect width="884" height="560" x="280" y="104" fill="#FFF" stroke="#CBD5E1" rx="12"/><rect width="226" height="22" x="312" y="132" fill="#111827" rx="11"/><rect width="90" height="34" x="932" y="126" fill="#E0F2FE" rx="17"/><rect width="94" height="34" x="1034" y="126" fill="#DCFCE7" rx="17"/><g><rect width="816" height="1" x="312" y="190" fill="#CBD5E1"/><circle cx="344" cy="228" r="22" fill="#DBEAFE"/><rect width="250" height="16" x="384" y="208" fill="#111827" rx="8"/><rect width="340" height="12" x="384" y="236" fill="#94A3B8" rx="6"/><rect width="88" height="28" x="770" y="212" fill="#E0F2FE" rx="14"/><rect width="88" height="28" x="874" y="212" fill="#F1F5F9" rx="14"/><rect width="88" height="28" x="978" y="212" fill="#2563EB" rx="14"/><rect width="816" height="1" x="312" y="276" fill="#CBD5E1"/><circle cx="344" cy="314" r="22" fill="#DCFCE7"/><rect width="278" height="16" x="384" y="294" fill="#111827" rx="8"/><rect width="312" height="12" x="384" y="322" fill="#94A3B8" rx="6"/><rect width="88" height="28" x="770" y="298" fill="#E0F2FE" rx="14"/><rect width="88" height="28" x="874" y="298" fill="#F1F5F9" rx="14"/><rect width="88" height="28" x="978" y="298" fill="#2563EB" rx="14"/><rect width="816" height="1" x="312" y="362" fill="#CBD5E1"/><circle cx="344" cy="400" r="22" fill="#FEF3C7"/><rect width="236" height="16" x="384" y="380" fill="#111827" rx="8"/><rect width="356" height="12" x="384" y="408" fill="#94A3B8" rx="6"/><rect width="88" height="28" x="770" y="384" fill="#E0F2FE" rx="14"/><rect width="88" height="28" x="874" y="384" fill="#F1F5F9" rx="14"/><rect width="88" height="28" x="978" y="384" fill="#2563EB" rx="14"/><rect width="816" height="1" x="312" y="448" fill="#CBD5E1"/><circle cx="344" cy="486" r="22" fill="#FCE7F3"/><rect width="268" height="16" x="384" y="466" fill="#111827" rx="8"/><rect width="328" height="12" x="384" y="494" fill="#94A3B8" rx="6"/><rect width="88" height="28" x="770" y="470" fill="#E0F2FE" rx="14"/><rect width="88" height="28" x="874" y="470" fill="#F1F5F9" rx="14"/><rect width="88" height="28" x="978" y="470" fill="#2563EB" rx="14"/><rect width="816" height="1" x="312" y="534" fill="#CBD5E1"/><circle cx="344" cy="572" r="22" fill="#E0E7FF"/><rect width="292" height="16" x="384" y="552" fill="#111827" rx="8"/><rect width="338" height="12" x="384" y="580" fill="#94A3B8" rx="6"/><rect width="88" height="28" x="770" y="556" fill="#E0F2FE" rx="14"/><rect width="88" height="28" x="874" y="556" fill="#F1F5F9" rx="14"/><rect width="88" height="28" x="978" y="556" fill="#2563EB" rx="14"/></g></svg>