<svg xmlns="http://www.w3.org/2000/svg" fill="none" viewBox="0 0 1440 900"><rect width="1440" height="900" fill="#F8FAFC"/><rect width="1440" height="76" x="0" y="0" fill="#111827"/><rect width="160" height="28" x="32" y="24" fill="#F9FAFB" rx="6"/><rect width="118" height="32" x="1030" y="22" fill="#2563EB" rx="16"/><rect width="118" height="32" x="1164" y="22" fill="#374151" rx="16"/><rect width="86" height="32" x="1298" y="22" fill="#10B981" rx="16"/><rect width="232" height="824" x="0" y="76" fill="#FFF"/><rect width="164" height="16" x="28" y="116" fill="#CBD5E1" rx="8"/><rect width="156" height="36" x="28" y="164" fill="#E0F2FE" rx="8"/><rect width="140" height="16" x="28" y="220" fill="#94A3B8" rx="8"/><rect width="154" height="16" x="28" y="264" fill="#94A3B8" rx="8"/><rect width="126" height="16" x="28" y="308" fill="#94A3B8" rx="8"/><rect width="148" height="16" x="28" y="352" fill="#94A3B8" rx="8"/><rect width="250" height="124" x="264" y="112" fill="#FFF" stroke="#CBD5E1" rx="10"/><rect width="92" height="14" x="288" y="136" fill="#64748B" rx="7"/><rect width="138" height="28" x="288" y="170" fill="#111827" rx="8"/><rect width="34" height="58" x="454" y="154" fill="#DBEAFE" rx="8"/><rect width="250" height="124" x="538" y="112" fill="#FFF" stroke="#CBD5E1" rx="10"/><rect width="104" height="14" x="562" y="136" fill="#64748B" rx="7"/><rect width="128" height="28" x="562" y="170" fill="#111827" rx="8"/><rect width="34" height="58" x="728" y="154" fill="#DCFCE7" rx="8"/><rect width="250" height="124" x="812" y="112" fill="#FFF" stroke="#CBD5E1" rx="10"/><rect width="88" height="14" x="836" y="136" fill="#64748B" rx="7"/><rect width="126" height="28" x="836" y="170" fill="#111827" rx="8"/><rect width="34" height="58" x="1002" y="154" fill="#FEF3C7" rx="8"/><rect width="250" height="124" x="1086" y="112" fill="#FFF" stroke="#CBD5E1" rx="10"/><rect width="94" height="14" x="1110" y="136" fill="#64748B" rx="7"/><rect width="132" height="28" x="1110" y="170" fill="#111827" rx="8"/><rect width="34" height="58" x="1276" y="154" fill="#FCE7F3" rx="8"/><rect width="702" height="302" x="264" y="268" fill="#FFF" stroke="#CBD5E1" rx="12"/><rect width="180" height="18" x="292" y="296" fill="#111827" rx="9"/><rect width="624" height="178" x="292" y="344" fill="#F1F5F9" rx="8"/><path stroke="#2563EB" stroke-linecap="round" stroke-width="8" d="M316 490 C390 390 480 450 556 372 C650 278 760 436 916 336"/><path stroke="#10B981" stroke-linecap="round" stroke-width="8" d="M316 510 C414 486 478 520 554 468 C648 404 766 512 916 448"/><rect width="346" height="302" x="990" y="268" fill="#FFF" stroke="#CBD5E1" rx="12"/><rect width="158" height="18" x="1018" y="296" fill="#111827" rx="9"/><circle cx="1162" cy="432" r="86" fill="#DBEAFE"/><path fill="#2563EB" d="M1162 346 A86 86 0 0 1 1236 476 L1162 432 Z"/><path fill="#10B981" d="M1162 346 A86 86 0 0 0 1088 476 L1162 432 Z"/><rect width="1072" height="236" x="264" y="600" fill="#FFF" stroke="#CBD5E1" rx="12"/><rect width="172" height="18" x="292" y="628" fill="#111827" rx="9"/><rect width="1016" height="1" x="292" y="670" fill="#CBD5E1"/><g fill="#E2E8F0"><rect width="80" height="16" x="292" y="696" rx="8"/><rect width="220" height="16" x="410" y="696" rx="8"/><rect width="160" height="16" x="674" y="696" rx="8"/><rect width="122" height="16" x="880" y="696" rx="8"/><rect width="148" height="16" x="1060" y="696" rx="8"/><rect width="80" height="16" x="292" y="740" rx="8"/><rect width="250" height="16" x="410" y="740" rx="8"/><rect width="154" height="16" x="674" y="740" rx="8"/><rect width="118" height="16" x="880" y="740" rx="8"/><rect width="148" height="16" x="1060" y="740" rx="8"/><rect width="80" height="16" x="292" y="784" rx="8"/><rect width="238" height="16" x="410" y="784" rx="8"/><rect width="166" height="16" x="674" y="784" rx="8"/><rect width="118" height="16" x="880" y="784" rx="8"/><rect width="148" height="16" x="1060" y="784" rx="8"/></g></svg>