<svg xmlns="http://www.w3.org/2000/svg" fill="none" viewBox="0 0 1200 720"><defs><style id="qwen-ref-style"><![CDATA[
  rect[fill="#fafafa"], rect[fill="#F8FAFC"] { fill: #08061f; }
  rect[fill="#fff"], rect[fill="#FFF"] { fill: #100b2f; }
  rect[fill="#f4f4f5"], circle[fill="#f4f4f5"], rect[fill="#F1F5F9"], rect[fill="#E2E8F0"] { fill: #171333; }
  rect[fill="#E0F2FE"], circle[fill="#E0F2FE"], circle[fill="#DBEAFE"], rect[fill="#DBEAFE"] { fill: #1a285f; }
  rect[fill="#DCFCE7"], circle[fill="#DCFCE7"] { fill: #123f42; }
  rect[fill="#FEF3C7"], circle[fill="#FEF3C7"] { fill: #2a1a55; }
  rect[fill="#FCE7F3"], circle[fill="#FCE7F3"] { fill: #351447; }
  rect[fill="#E0E7FF"], circle[fill="#E0E7FF"] { fill: #231a5e; }
  rect[fill="#18181b"], rect[fill="#111827"] { fill: #6d38ff; }
  rect[fill="#2563EB"], path[fill="#2563EB"] { fill: #6d38ff; }
  rect[fill="#10B981"], path[fill="#10B981"] { fill: #19f2ff; }
  text[fill="#18181b"], text[fill="#111827"] { fill: #f8f5ff; }
  text[fill="#71717a"], text[fill="#a1a1aa"], text[fill="#A1A1AA"], text[fill="#64748B"], text[fill="#94A3B8"] { fill: #b7a5e7; }
  text[fill="#059669"], text[fill="#10B981"] { fill: #19f2ff; }
  text[fill="#dc2626"], text[fill="#EF4444"] { fill: #ff6b9d; }
  path[stroke="#18181b"], path[stroke="#111827"] { stroke: #d9b6ff; }
  path[stroke="#2563EB"] { stroke: #9a6dff; }
  path[stroke="#10B981"] { stroke: #19f2ff; }
  rect[stroke="#e4e4e7"], circle[stroke="#e4e4e7"], line[stroke="#e4e4e7"], rect[stroke="#CBD5E1"], circle[stroke="#CBD5E1"], line[stroke="#CBD5E1"], rect[stroke="#E2E8F0"] { stroke: #35206e; }
]]></style></defs><rect width="1200" height="720" fill="#F8FAFC"/><rect width="1200" height="70" x="0" y="0" fill="#FFF" stroke="#CBD5E1"/><rect width="140" height="22" x="32" y="24" fill="#111827" rx="8"/><rect width="390" height="34" x="228" y="18" fill="#F1F5F9" stroke="#CBD5E1" rx="17"/><rect width="82" height="34" x="974" y="18" fill="#E0F2FE" rx="17"/><rect width="94" height="34" x="1070" y="18" fill="#2563EB" rx="17"/><rect width="216" height="560" x="32" y="104" fill="#FFF" stroke="#CBD5E1" rx="12"/><rect width="116" height="16" x="58" y="132" fill="#111827" rx="8"/><rect width="156" height="18" x="58" y="184" fill="#E2E8F0" rx="9"/><rect width="132" height="18" x="58" y="228" fill="#E2E8F0" rx="9"/><rect width="148" height="18" x="58" y="272" fill="#E2E8F0" rx="9"/><rect width="126" height="18" x="58" y="316" fill="#E2E8F0" rx="9"/><rect width="156" height="44" x="58" y="380" fill="#F1F5F9" rx="10"/><rect width="156" height="44" x="58" y="444" fill="#F1F5F9" rx="10"/><rect width="156" height="44" x="58" y="508" fill="#F1F5F9" rx="10"/><rect width="884" height="560" x="280" y="104" fill="#FFF" stroke="#CBD5E1" rx="12"/><rect width="226" height="22" x="312" y="132" fill="#111827" rx="11"/><rect width="90" height="34" x="932" y="126" fill="#E0F2FE" rx="17"/><rect width="94" height="34" x="1034" y="126" fill="#DCFCE7" rx="17"/><g><rect width="816" height="1" x="312" y="190" fill="#CBD5E1"/><circle cx="344" cy="228" r="22" fill="#DBEAFE"/><rect width="250" height="16" x="384" y="208" fill="#111827" rx="8"/><rect width="340" height="12" x="384" y="236" fill="#94A3B8" rx="6"/><rect width="88" height="28" x="770" y="212" fill="#E0F2FE" rx="14"/><rect width="88" height="28" x="874" y="212" fill="#F1F5F9" rx="14"/><rect width="88" height="28" x="978" y="212" fill="#2563EB" rx="14"/><rect width="816" height="1" x="312" y="276" fill="#CBD5E1"/><circle cx="344" cy="314" r="22" fill="#DCFCE7"/><rect width="278" height="16" x="384" y="294" fill="#111827" rx="8"/><rect width="312" height="12" x="384" y="322" fill="#94A3B8" rx="6"/><rect width="88" height="28" x="770" y="298" fill="#E0F2FE" rx="14"/><rect width="88" height="28" x="874" y="298" fill="#F1F5F9" rx="14"/><rect width="88" height="28" x="978" y="298" fill="#2563EB" rx="14"/><rect width="816" height="1" x="312" y="362" fill="#CBD5E1"/><circle cx="344" cy="400" r="22" fill="#FEF3C7"/><rect width="236" height="16" x="384" y="380" fill="#111827" rx="8"/><rect width="356" height="12" x="384" y="408" fill="#94A3B8" rx="6"/><rect width="88" height="28" x="770" y="384" fill="#E0F2FE" rx="14"/><rect width="88" height="28" x="874" y="384" fill="#F1F5F9" rx="14"/><rect width="88" height="28" x="978" y="384" fill="#2563EB" rx="14"/><rect width="816" height="1" x="312" y="448" fill="#CBD5E1"/><circle cx="344" cy="486" r="22" fill="#FCE7F3"/><rect width="268" height="16" x="384" y="466" fill="#111827" rx="8"/><rect width="328" height="12" x="384" y="494" fill="#94A3B8" rx="6"/><rect width="88" height="28" x="770" y="470" fill="#E0F2FE" rx="14"/><rect width="88" height="28" x="874" y="470" fill="#F1F5F9" rx="14"/><rect width="88" height="28" x="978" y="470" fill="#2563EB" rx="14"/><rect width="816" height="1" x="312" y="534" fill="#CBD5E1"/><circle cx="344" cy="572" r="22" fill="#E0E7FF"/><rect width="292" height="16" x="384" y="552" fill="#111827" rx="8"/><rect width="338" height="12" x="384" y="580" fill="#94A3B8" rx="6"/><rect width="88" height="28" x="770" y="556" fill="#E0F2FE" rx="14"/><rect width="88" height="28" x="874" y="556" fill="#F1F5F9" rx="14"/><rect width="88" height="28" x="978" y="556" fill="#2563EB" rx="14"/></g></svg>