<svg xmlns="http://www.w3.org/2000/svg" viewBox="0 0 1200 720" fill="none">
  <rect width="1200" height="720" fill="#F8FAFC"/>
  <rect x="0" y="0" width="1200" height="70" fill="#FFFFFF" stroke="#CBD5E1"/>
  <rect x="32" y="24" width="140" height="22" rx="8" fill="#111827"/>
  <rect x="228" y="18" width="390" height="34" rx="17" fill="#F1F5F9" stroke="#CBD5E1"/>
  <rect x="974" y="18" width="82" height="34" rx="17" fill="#E0F2FE"/>
  <rect x="1070" y="18" width="94" height="34" rx="17" fill="#2563EB"/>
  <rect x="32" y="104" width="216" height="560" rx="12" fill="#FFFFFF" stroke="#CBD5E1"/>
  <rect x="58" y="132" width="116" height="16" rx="8" fill="#111827"/>
  <rect x="58" y="184" width="156" height="18" rx="9" fill="#E2E8F0"/>
  <rect x="58" y="228" width="132" height="18" rx="9" fill="#E2E8F0"/>
  <rect x="58" y="272" width="148" height="18" rx="9" fill="#E2E8F0"/>
  <rect x="58" y="316" width="126" height="18" rx="9" fill="#E2E8F0"/>
  <rect x="58" y="380" width="156" height="44" rx="10" fill="#F1F5F9"/>
  <rect x="58" y="444" width="156" height="44" rx="10" fill="#F1F5F9"/>
  <rect x="58" y="508" width="156" height="44" rx="10" fill="#F1F5F9"/>
  <rect x="280" y="104" width="884" height="560" rx="12" fill="#FFFFFF" stroke="#CBD5E1"/>
  <rect x="312" y="132" width="226" height="22" rx="11" fill="#111827"/>
  <rect x="932" y="126" width="90" height="34" rx="17" fill="#E0F2FE"/>
  <rect x="1034" y="126" width="94" height="34" rx="17" fill="#DCFCE7"/>
  <g>
    <rect x="312" y="190" width="816" height="1" fill="#CBD5E1"/>
    <circle cx="344" cy="228" r="22" fill="#DBEAFE"/>
    <rect x="384" y="208" width="250" height="16" rx="8" fill="#111827"/>
    <rect x="384" y="236" width="340" height="12" rx="6" fill="#94A3B8"/>
    <rect x="770" y="212" width="88" height="28" rx="14" fill="#E0F2FE"/>
    <rect x="874" y="212" width="88" height="28" rx="14" fill="#F1F5F9"/>
    <rect x="978" y="212" width="88" height="28" rx="14" fill="#2563EB"/>
    <rect x="312" y="276" width="816" height="1" fill="#CBD5E1"/>
    <circle cx="344" cy="314" r="22" fill="#DCFCE7"/>
    <rect x="384" y="294" width="278" height="16" rx="8" fill="#111827"/>
    <rect x="384" y="322" width="312" height="12" rx="6" fill="#94A3B8"/>
    <rect x="770" y="298" width="88" height="28" rx="14" fill="#E0F2FE"/>
    <rect x="874" y="298" width="88" height="28" rx="14" fill="#F1F5F9"/>
    <rect x="978" y="298" width="88" height="28" rx="14" fill="#2563EB"/>
    <rect x="312" y="362" width="816" height="1" fill="#CBD5E1"/>
    <circle cx="344" cy="400" r="22" fill="#FEF3C7"/>
    <rect x="384" y="380" width="236" height="16" rx="8" fill="#111827"/>
    <rect x="384" y="408" width="356" height="12" rx="6" fill="#94A3B8"/>
    <rect x="770" y="384" width="88" height="28" rx="14" fill="#E0F2FE"/>
    <rect x="874" y="384" width="88" height="28" rx="14" fill="#F1F5F9"/>
    <rect x="978" y="384" width="88" height="28" rx="14" fill="#2563EB"/>
    <rect x="312" y="448" width="816" height="1" fill="#CBD5E1"/>
    <circle cx="344" cy="486" r="22" fill="#FCE7F3"/>
    <rect x="384" y="466" width="268" height="16" rx="8" fill="#111827"/>
    <rect x="384" y="494" width="328" height="12" rx="6" fill="#94A3B8"/>
    <rect x="770" y="470" width="88" height="28" rx="14" fill="#E0F2FE"/>
    <rect x="874" y="470" width="88" height="28" rx="14" fill="#F1F5F9"/>
    <rect x="978" y="470" width="88" height="28" rx="14" fill="#2563EB"/>
    <rect x="312" y="534" width="816" height="1" fill="#CBD5E1"/>
    <circle cx="344" cy="572" r="22" fill="#E0E7FF"/>
    <rect x="384" y="552" width="292" height="16" rx="8" fill="#111827"/>
    <rect x="384" y="580" width="338" height="12" rx="6" fill="#94A3B8"/>
    <rect x="770" y="556" width="88" height="28" rx="14" fill="#E0F2FE"/>
    <rect x="874" y="556" width="88" height="28" rx="14" fill="#F1F5F9"/>
    <rect x="978" y="556" width="88" height="28" rx="14" fill="#2563EB"/>
  </g>
</svg>
