<svg xmlns="http://www.w3.org/2000/svg" viewBox="0 0 180 180" fill="none">
  <defs>
    <linearGradient id="qui-180-74-114-bg" x1="0" y1="0" x2="180" y2="180" gradientUnits="userSpaceOnUse">
      <stop stop-color="#08061f"/>
      <stop offset=".58" stop-color="#111827"/>
      <stop offset="1" stop-color="#1e1b4b"/>
    </linearGradient>
    <linearGradient id="qui-180-74-114-frame" x1="46.406" y1="33.75" x2="136.406" y2="147.656" gradientUnits="userSpaceOnUse">
      <stop stop-color="#c4b5fd"/>
      <stop offset=".42" stop-color="#8b5cf6"/>
      <stop offset="1" stop-color="#5b21b6"/>
    </linearGradient>
    <linearGradient id="qui-180-74-114-face" x1="63.281" y1="52.734" x2="118.125" y2="126.563" gradientUnits="userSpaceOnUse">
      <stop stop-color="#171333"/>
      <stop offset="1" stop-color="#050315"/>
    </linearGradient>
    <linearGradient id="qui-180-74-114-letters" x1="59.063" y1="71.016" x2="122.344" y2="103.359" gradientUnits="userSpaceOnUse">
      <stop stop-color="#f5f3ff"/>
      <stop offset=".42" stop-color="#c4b5fd"/>
      <stop offset="1" stop-color="#8b5cf6"/>
    </linearGradient>
    <filter id="qui-180-74-114-shadow" x="-20%" y="-20%" width="140%" height="150%" color-interpolation-filters="sRGB">
      <feDropShadow dx="0" dy="6.328" stdDeviation="7.031" flood-color="#020617" flood-opacity=".55"/>
      <feDropShadow dx="0" dy="0" stdDeviation="5.625" flood-color="#8b5cf6" flood-opacity=".34"/>
    </filter>
  </defs>
  <rect width="180" height="180" rx="40.078" fill="url(#qui-180-74-114-bg)"/>
  <path d="M26.016 52.734h121.641M26.016 90h121.641M26.016 127.266h121.641M52.734 26.016v121.641M90 26.016v121.641M127.266 26.016v121.641" stroke="#22d3ee" stroke-opacity=".12" stroke-width="1.758"/>
  <ellipse cx="90" cy="91.406" rx="68.906" ry="25.313" stroke="#22d3ee" stroke-opacity=".38" stroke-width="3.164" transform="rotate(-18 90 91.406)"/>
  <ellipse cx="90" cy="91.406" rx="66.094" ry="23.203" stroke="#c4b5fd" stroke-opacity=".55" stroke-width="3.516" transform="rotate(24 90 91.406)"/>
  <g filter="url(#qui-180-74-114-shadow)">
    <polygon points="90,29.531 135.703,55.547 135.703,111.797 90,150.469 44.297,111.797 44.297,55.547" fill="url(#qui-180-74-114-frame)"/>
    <polygon points="90,47.109 120.234,64.688 120.234,105.469 90,131.484 59.766,105.469 59.766,64.688" fill="url(#qui-180-74-114-face)" stroke="#ede9fe" stroke-opacity=".34" stroke-width="2.109"/>
    <path d="M54.844 61.172L90 40.781L125.156 61.172" stroke="#ede9fe" stroke-opacity=".48" stroke-width="3.516" stroke-linecap="round" stroke-linejoin="round"/>
    <path d="M52.031 111.797L90 143.438L127.969 111.797" stroke="#4c1d95" stroke-opacity=".45" stroke-width="4.219" stroke-linecap="round" stroke-linejoin="round"/>
    <text x="90" y="100.195" text-anchor="middle" font-family="Inter, Arial, sans-serif" font-size="39.375" font-weight="900" letter-spacing="-1.758" fill="#4c1d95" opacity=".62">QUI</text>
    <text x="90" y="96.328" text-anchor="middle" font-family="Inter, Arial, sans-serif" font-size="39.375" font-weight="900" letter-spacing="-1.758" fill="url(#qui-180-74-114-letters)">QUI</text>
  </g>
  <circle cx="133.594" cy="59.063" r="4.219" fill="#c4b5fd"/>
  <circle cx="46.406" cy="120.234" r="3.164" fill="#22d3ee" fill-opacity=".84"/>
</svg>
