<svg xmlns="http://www.w3.org/2000/svg" fill="none" viewBox="0 0 64 64"><defs><linearGradient id="qui-64-52-112-bg" x1="0" x2="64" y1="0" y2="64" gradientUnits="userSpaceOnUse"><stop stop-color="#08061f"/><stop offset=".58" stop-color="#111827"/><stop offset="1" stop-color="#1e1b4b"/></linearGradient><linearGradient id="qui-64-52-112-frame" x1="16.5" x2="48.5" y1="12" y2="52.5" gradientUnits="userSpaceOnUse"><stop stop-color="#c4b5fd"/><stop offset=".42" stop-color="#8b5cf6"/><stop offset="1" stop-color="#5b21b6"/></linearGradient><linearGradient id="qui-64-52-112-face" x1="22.5" x2="42" y1="18.75" y2="45" gradientUnits="userSpaceOnUse"><stop stop-color="#171333"/><stop offset="1" stop-color="#050315"/></linearGradient><linearGradient id="qui-64-52-112-letters" x1="21" x2="43.5" y1="25.25" y2="36.75" gradientUnits="userSpaceOnUse"><stop stop-color="#f5f3ff"/><stop offset=".42" stop-color="#c4b5fd"/><stop offset="1" stop-color="#8b5cf6"/></linearGradient><filter id="qui-64-52-112-shadow" width="140%" height="150%" x="-20%" y="-20%" color-interpolation-filters="sRGB"><feDropShadow dx="0" dy="2.25" flood-color="#020617" flood-opacity=".55" stdDeviation="2.5"/><feDropShadow dx="0" dy="0" flood-color="#8b5cf6" flood-opacity=".34" stdDeviation="2"/></filter></defs><rect width="64" height="64" fill="url(#qui-64-52-112-bg)" rx="14"/><path stroke="#22d3ee" stroke-opacity=".12" stroke-width=".625" d="M6.5 18.75h46M6.5 32h46M6.5 45.25h46M18.75 6.5v46M32 6.5v46M45.25 6.5v46"/><ellipse cx="32" cy="32.5" stroke="#22d3ee" stroke-opacity=".38" stroke-width="1.125" rx="24.5" ry="9" transform="rotate(-18 32 32.5)"/><ellipse cx="32" cy="32.5" stroke="#c4b5fd" stroke-opacity=".55" stroke-width="1.25" rx="23.5" ry="8.25" transform="rotate(24 32 32.5)"/><g filter="url(#qui-64-52-112-shadow)"><polygon fill="url(#qui-64-52-112-frame)" points="32 10.5 48.25 19.75 48.25 39.75 32 53.5 15.75 39.75 15.75 19.75"/><polygon fill="url(#qui-64-52-112-face)" stroke="#ede9fe" stroke-opacity=".34" stroke-width=".75" points="32 16.75 42.75 23 42.75 37.5 32 46.75 21.25 37.5 21.25 23"/><path stroke="#ede9fe" stroke-linecap="round" stroke-linejoin="round" stroke-opacity=".48" stroke-width="1.25" d="M19.5 21.75L32 14.5L44.5 21.75"/><path stroke="#4c1d95" stroke-linecap="round" stroke-linejoin="round" stroke-opacity=".45" stroke-width="1.5" d="M18.5 39.75L32 51L45.5 39.75"/><text x="32" y="35.625" fill="#4c1d95" font-family="Inter, Arial, sans-serif" font-size="14" font-weight="900" letter-spacing="-.625" opacity=".62" text-anchor="middle">QUI</text><text x="32" y="34.25" fill="url(#qui-64-52-112-letters)" font-family="Inter, Arial, sans-serif" font-size="14" font-weight="900" letter-spacing="-.625" text-anchor="middle">QUI</text></g><circle cx="47.5" cy="21" r="1.5" fill="#c4b5fd"/><circle cx="16.5" cy="42.75" r="1.125" fill="#22d3ee" fill-opacity=".84"/></svg>