<svg xmlns="http://www.w3.org/2000/svg" viewBox="0 0 512 512" fill="none">
  <rect width="512" height="512" rx="120" fill="#0f172a"/>
  <path d="M92 134h304M92 194h304M92 254h304M92 314h304M136 92v304M196 92v304M256 92v304M316 92v304M376 92v304" stroke="#22d3ee" stroke-opacity=".12" stroke-width="5"/>
  <rect x="126" y="132" width="260" height="232" rx="38" fill="#111827" stroke="#67e8f9" stroke-width="18"/>
  <path d="M166 204h128M166 250h78M166 296h96" stroke="#e0f2fe" stroke-width="18" stroke-linecap="round"/>
  <rect x="170" y="334" width="38" height="68" rx="12" fill="#34d399"/>
  <rect x="230" y="304" width="38" height="98" rx="12" fill="#67e8f9"/>
  <rect x="290" y="274" width="38" height="128" rx="12" fill="#a78bfa"/>
  <circle cx="306" cy="300" r="58" fill="#0f172a" stroke="#f8fafc" stroke-width="22"/>
  <path d="M346 340l70 70" stroke="#f8fafc" stroke-width="30" stroke-linecap="round"/>
  <path d="M276 300l28 28 54-72" stroke="#34d399" stroke-width="18" stroke-linecap="round" stroke-linejoin="round"/>
</svg>
