<svg xmlns="http://www.w3.org/2000/svg" viewBox="0 0 64 64" fill="none">
  <defs>
    <linearGradient id="qui-64-52-112-bg" x1="0" y1="0" x2="64" y2="64" gradientUnits="userSpaceOnUse">
      <stop stop-color="#08061f"/>
      <stop offset=".58" stop-color="#111827"/>
      <stop offset="1" stop-color="#1e1b4b"/>
    </linearGradient>
    <linearGradient id="qui-64-52-112-frame" x1="16.5" y1="12" x2="48.5" y2="52.5" gradientUnits="userSpaceOnUse">
      <stop stop-color="#c4b5fd"/>
      <stop offset=".42" stop-color="#8b5cf6"/>
      <stop offset="1" stop-color="#5b21b6"/>
    </linearGradient>
    <linearGradient id="qui-64-52-112-face" x1="22.5" y1="18.75" x2="42" y2="45" gradientUnits="userSpaceOnUse">
      <stop stop-color="#171333"/>
      <stop offset="1" stop-color="#050315"/>
    </linearGradient>
    <linearGradient id="qui-64-52-112-letters" x1="21" y1="25.25" x2="43.5" y2="36.75" gradientUnits="userSpaceOnUse">
      <stop stop-color="#f5f3ff"/>
      <stop offset=".42" stop-color="#c4b5fd"/>
      <stop offset="1" stop-color="#8b5cf6"/>
    </linearGradient>
    <filter id="qui-64-52-112-shadow" x="-20%" y="-20%" width="140%" height="150%" color-interpolation-filters="sRGB">
      <feDropShadow dx="0" dy="2.25" stdDeviation="2.5" flood-color="#020617" flood-opacity=".55"/>
      <feDropShadow dx="0" dy="0" stdDeviation="2" flood-color="#8b5cf6" flood-opacity=".34"/>
    </filter>
  </defs>
  <rect width="64" height="64" rx="14" fill="url(#qui-64-52-112-bg)"/>
  <path d="M6.5 18.75h46M6.5 32h46M6.5 45.25h46M18.75 6.5v46M32 6.5v46M45.25 6.5v46" stroke="#22d3ee" stroke-opacity=".12" stroke-width="0.625"/>
  <ellipse cx="32" cy="32.5" rx="24.5" ry="9" stroke="#22d3ee" stroke-opacity=".38" stroke-width="1.125" transform="rotate(-18 32 32.5)"/>
  <ellipse cx="32" cy="32.5" rx="23.5" ry="8.25" stroke="#c4b5fd" stroke-opacity=".55" stroke-width="1.25" transform="rotate(24 32 32.5)"/>
  <g filter="url(#qui-64-52-112-shadow)">
    <polygon points="32,10.5 48.25,19.75 48.25,39.75 32,53.5 15.75,39.75 15.75,19.75" fill="url(#qui-64-52-112-frame)"/>
    <polygon points="32,16.75 42.75,23 42.75,37.5 32,46.75 21.25,37.5 21.25,23" fill="url(#qui-64-52-112-face)" stroke="#ede9fe" stroke-opacity=".34" stroke-width="0.75"/>
    <path d="M19.5 21.75L32 14.5L44.5 21.75" stroke="#ede9fe" stroke-opacity=".48" stroke-width="1.25" stroke-linecap="round" stroke-linejoin="round"/>
    <path d="M18.5 39.75L32 51L45.5 39.75" stroke="#4c1d95" stroke-opacity=".45" stroke-width="1.5" stroke-linecap="round" stroke-linejoin="round"/>
    <text x="32" y="35.625" text-anchor="middle" font-family="Inter, Arial, sans-serif" font-size="14" font-weight="900" letter-spacing="-0.625" fill="#4c1d95" opacity=".62">QUI</text>
    <text x="32" y="34.25" text-anchor="middle" font-family="Inter, Arial, sans-serif" font-size="14" font-weight="900" letter-spacing="-0.625" fill="url(#qui-64-52-112-letters)">QUI</text>
  </g>
  <circle cx="47.5" cy="21" r="1.5" fill="#c4b5fd"/>
  <circle cx="16.5" cy="42.75" r="1.125" fill="#22d3ee" fill-opacity=".84"/>
</svg>
